PathFileType	4	(X/Y/Z)	./resultDataOpenSim/trcMotMarkerGrf/sub06/qtm-12-08.trc
DataRate	CameraRate	NumFrames	NumMarkers	Units	OrigDataRate	OrigDataStartFrame	OrigNumFrames
250.000000	250.000000	6	24	m	250.000000	390	519
Frame#	Time	L.Toe.Tip			R.Toe.Tip			L.Ankle.Lat			R.Ankle.Lat			L.Ankle.Med			R.Ankle.Med			L.Heel			R.Heel			L.Knee.Lat			R.Knee.Lat			L.Knee.Med			R.Knee.Med			L.Thigh.Upper			R.Thigh.Upper			L.ASIS			R.ASIS			V.Sacral			L.Acromium			R.Acromium			C7			L.Elbow			R.Elbow			L.Wrist.Lat			R.Wrist.Lat
		X1	Y1	Z1	X2	Y2	Z2	X3	Y3	Z3	X4	Y4	Z4	X5	Y5	Z5	X6	Y6	Z6	X7	Y7	Z7	X8	Y8	Z8	X9	Y9	Z9	X10	Y10	Z10	X11	Y11	Z11	X12	Y12	Z12	X13	Y13	Z13	X14	Y14	Z14	X15	Y15	Z15	X16	Y16	Z16	X17	Y17	Z17	X18	Y18	Z18	X19	Y19	Z19	X20	Y20	Z20	X21	Y21	Z21	X22	Y22	Z22	X23	Y23	Z23	X24	Y24	Z24

390	1.556	1.6024882	0.13392433	-0.086572789	0.88345425	0.034847211	0.1059801	1.4768694	0.1068805	-0.10083633	0.76876426	0.10437747	0.13512511	1.4763323	0.12261826	-0.017286608	0.79320401	0.11948014	0.048271028	1.4298405	0.04536474	-0.053340897	0.70977679	0.10641813	0.077642479	1.345795	0.45151851	-0.097755876	0.98174007	0.43680198	0.15424489	1.3235599	0.43737483	0.025491121	0.95356878	0.43798768	0.02481331	1.158047	0.79029197	-0.14558537	1.0912708	0.78356656	0.19702604	1.2197655	0.83865193	-0.090288685	1.2048233	0.82977877	0.15856043	1.0264025	0.91050712	0.023204202	1.1105237	1.3121026	-0.15807211	1.1488128	1.3146166	0.20188282	1.0539853	1.3480193	0.028744838	0.99080519	1.0282537	-0.19183869	1.1760666	1.0025779	0.31003902	1.0210888	0.79683862	-0.26079225	1.4164489	0.96683584	0.25388332
391	1.56	1.6091775	0.13241853	-0.085622394	0.88367865	0.034828024	0.10607827	1.4839514	0.10552661	-0.10002473	0.77012926	0.10589872	0.13572931	1.4827717	0.12132479	-0.016490975	0.79464617	0.12087069	0.048950955	1.4364446	0.044051339	-0.052724826	0.71125427	0.10894414	0.078432058	1.3535932	0.45114882	-0.097415547	0.98709027	0.43609759	0.15411959	1.3300751	0.43679723	0.025656542	0.95898772	0.43739125	0.024718312	1.1656282	0.78921928	-0.14603472	1.0958679	0.782791	0.1966941	1.2270919	0.83736161	-0.09056486	1.2116814	0.82826705	0.15819382	1.0336747	0.90932836	0.022054877	1.1171723	1.3106061	-0.15886182	1.1552997	1.3134047	0.20120205	1.0605325	1.3466826	0.027942854	0.99677019	1.0272434	-0.19232871	1.1830905	1.0014348	0.30946811	1.0256838	0.79569451	-0.26162537	1.4233701	0.96623014	0.25283583
392	1.564	1.6151965	0.13041818	-0.084467681	0.88394645	0.034826582	0.10618734	1.4904154	0.10383697	-0.099210423	0.77163324	0.10750833	0.13637199	1.4884033	0.11960744	-0.015684919	0.79615241	0.12233002	0.04970236	1.4422689	0.042493124	-0.052203422	0.71285277	0.11156188	0.079249624	1.3613957	0.45073145	-0.097108187	0.99255013	0.4353672	0.15399801	1.3371217	0.4363456	0.025766123	0.96450189	0.43674585	0.02457759	1.1732346	0.78823176	-0.14653184	1.1005284	0.78203329	0.19632744	1.2344674	0.83609345	-0.090858646	1.218592	0.82677625	0.15784559	1.04078	0.90818414	0.02090626	1.1238598	1.3091233	-0.15967752	1.1618237	1.3121908	0.20049316	1.067116	1.3453449	0.027117216	1.0028012	1.0262238	-0.19285204	1.1899657	1.0002355	0.3088194	1.0304347	0.79454344	-0.2624275	1.4302087	0.96552228	0.25179407
393	1.568	1.6206539	0.12791102	-0.082901192	0.88424665	0.034828964	0.10628909	1.4962267	0.10184051	-0.09837151	0.7733196	0.10919817	0.13704625	1.493211	0.11747604	-0.014870684	0.79780262	0.12383583	0.050461726	1.4473261	0.040723772	-0.051754744	0.71458525	0.11427906	0.080094028	1.3692153	0.45027438	-0.096841505	0.99816492	0.43459769	0.15389175	1.3444437	0.43595322	0.025811015	0.97011577	0.43604524	0.024399418	1.1808487	0.78733152	-0.14709097	1.1059824	0.78112117	0.19582153	1.2418983	0.83486052	-0.091181669	1.2255585	0.82530608	0.15751033	1.0479084	0.90702364	0.02002346	1.1305862	1.3076595	-0.16051611	1.1683912	1.310976	0.19974461	1.0737371	1.344011	0.026273143	1.0089083	1.0252023	-0.19341716	1.1967471	0.99901915	0.30812886	1.0353463	0.79338827	-0.26319868	1.4369594	0.96471071	0.2507598
394	1.572	1.6255984	0.12485318	-0.080935251	0.88457457	0.034823998	0.10638297	1.5013861	0.099566084	-0.09750317	0.7752237	0.11095254	0.13774825	1.4973418	0.11501102	-0.01405777	0.79965444	0.12536642	0.051182121	1.4516531	0.038763919	-0.051344719	0.71646356	0.11710034	0.080964271	1.3770629	0.44980325	-0.096622609	1.0039782	0.43377635	0.15381178	1.3519186	0.43558929	0.025781865	0.97591246	0.43528301	0.024234864	1.1884602	0.78651699	-0.1477259	1.1122919	0.78004492	0.19517233	1.2493697	0.83367083	-0.091550936	1.2325826	0.82385969	0.15717641	1.0552151	0.90580977	0.01954257	1.1373495	1.306219	-0.16137354	1.1749942	1.3097645	0.19895365	1.0803846	1.3426836	0.025404371	1.0150803	1.0241894	-0.19401622	1.203456	0.99780316	0.30741091	1.0404176	0.79223176	-0.26393517	1.4436233	0.96379488	0.24973764
395	1.576	1.6300164	0.12126611	-0.078765935	0.88493821	0.034815077	0.10649552	1.5059245	0.09703477	-0.096611882	0.77732871	0.11276115	0.13846558	1.5010923	0.11234389	-0.013253269	0.80170927	0.12691941	0.051866247	1.4552977	0.036622886	-0.050945531	0.7185008	0.12002478	0.081854338	1.3849359	0.44935158	-0.0964584	1.010001	0.43290041	0.15375984	1.3594831	0.43525997	0.025672509	0.98204422	0.43445192	0.024172085	1.1960687	0.78578121	-0.1484329	1.1190165	0.77891568	0.19445409	1.2568575	0.83252405	-0.091988595	1.2396728	0.82244194	0.15682905	1.0626923	0.90455621	0.019334736	1.1441468	1.3047994	-0.16225037	1.1816206	1.3085614	0.19812596	1.0870469	1.3413607	0.024501894	1.0213057	1.0231875	-0.19463988	1.2100974	0.99659495	0.30667134	1.0456513	0.79107634	-0.26463473	1.4502084	0.96277357	0.2487303
